<mxfile host="Electron" modified="2024-01-24T07:56:38.345Z" agent="Mozilla/5.0 (Windows NT 10.0; Win64; x64) AppleWebKit/537.36 (KHTML, like Gecko) draw.io/22.0.3 Chrome/114.0.5735.289 Electron/25.8.4 Safari/537.36" etag="NOijjDdvwQHrV5zj_QZ4" version="22.0.3" type="device">
  <diagram name="PÃ¡gina-1" id="Jh_1Y_FVP-5S4fxR71IF">
    <mxGraphModel dx="712" dy="827" grid="1" gridSize="10" guides="1" tooltips="1" connect="1" arrows="1" fold="1" page="1" pageScale="1" pageWidth="827" pageHeight="1169" math="0" shadow="0">
      <root>
        <mxCell id="0" />
        <mxCell id="1" parent="0" />
        <mxCell id="7zyX0bjfeX5HBIwXNsfr-1" value="director" style="shape=umlActor;verticalLabelPosition=bottom;verticalAlign=top;html=1;outlineConnect=0;" vertex="1" parent="1">
          <mxGeometry x="90" y="310" width="30" height="60" as="geometry" />
        </mxCell>
        <mxCell id="7zyX0bjfeX5HBIwXNsfr-2" value="dar alta" style="ellipse;whiteSpace=wrap;html=1;" vertex="1" parent="1">
          <mxGeometry x="330" y="160" width="120" height="80" as="geometry" />
        </mxCell>
        <mxCell id="7zyX0bjfeX5HBIwXNsfr-3" value="dar baja" style="ellipse;whiteSpace=wrap;html=1;" vertex="1" parent="1">
          <mxGeometry x="330" y="260" width="120" height="80" as="geometry" />
        </mxCell>
        <mxCell id="7zyX0bjfeX5HBIwXNsfr-4" value="consultar datos" style="ellipse;whiteSpace=wrap;html=1;" vertex="1" parent="1">
          <mxGeometry x="330" y="370" width="120" height="80" as="geometry" />
        </mxCell>
        <mxCell id="7zyX0bjfeX5HBIwXNsfr-6" value="modificare datos" style="ellipse;whiteSpace=wrap;html=1;" vertex="1" parent="1">
          <mxGeometry x="330" y="470" width="120" height="80" as="geometry" />
        </mxCell>
        <mxCell id="7zyX0bjfeX5HBIwXNsfr-7" value="" style="endArrow=none;html=1;rounded=0;exitX=0.5;exitY=0.5;exitDx=0;exitDy=0;exitPerimeter=0;entryX=0;entryY=0.5;entryDx=0;entryDy=0;" edge="1" parent="1" source="7zyX0bjfeX5HBIwXNsfr-1" target="7zyX0bjfeX5HBIwXNsfr-2">
          <mxGeometry width="50" height="50" relative="1" as="geometry">
            <mxPoint x="340" y="450" as="sourcePoint" />
            <mxPoint x="390" y="400" as="targetPoint" />
          </mxGeometry>
        </mxCell>
        <mxCell id="7zyX0bjfeX5HBIwXNsfr-8" value="" style="endArrow=none;html=1;rounded=0;exitX=0.5;exitY=0.5;exitDx=0;exitDy=0;exitPerimeter=0;entryX=0.025;entryY=0.388;entryDx=0;entryDy=0;entryPerimeter=0;" edge="1" parent="1" source="7zyX0bjfeX5HBIwXNsfr-1" target="7zyX0bjfeX5HBIwXNsfr-3">
          <mxGeometry width="50" height="50" relative="1" as="geometry">
            <mxPoint x="340" y="450" as="sourcePoint" />
            <mxPoint x="390" y="400" as="targetPoint" />
          </mxGeometry>
        </mxCell>
        <mxCell id="7zyX0bjfeX5HBIwXNsfr-9" value="" style="endArrow=none;html=1;rounded=0;exitX=0.5;exitY=0.5;exitDx=0;exitDy=0;exitPerimeter=0;entryX=0;entryY=0.5;entryDx=0;entryDy=0;" edge="1" parent="1" source="7zyX0bjfeX5HBIwXNsfr-1" target="7zyX0bjfeX5HBIwXNsfr-4">
          <mxGeometry width="50" height="50" relative="1" as="geometry">
            <mxPoint x="340" y="450" as="sourcePoint" />
            <mxPoint x="390" y="400" as="targetPoint" />
          </mxGeometry>
        </mxCell>
        <mxCell id="7zyX0bjfeX5HBIwXNsfr-10" value="" style="endArrow=none;html=1;rounded=0;exitX=0.5;exitY=0.5;exitDx=0;exitDy=0;exitPerimeter=0;entryX=0;entryY=0.5;entryDx=0;entryDy=0;" edge="1" parent="1" source="7zyX0bjfeX5HBIwXNsfr-1" target="7zyX0bjfeX5HBIwXNsfr-6">
          <mxGeometry width="50" height="50" relative="1" as="geometry">
            <mxPoint x="340" y="450" as="sourcePoint" />
            <mxPoint x="390" y="400" as="targetPoint" />
          </mxGeometry>
        </mxCell>
        <mxCell id="7zyX0bjfeX5HBIwXNsfr-11" value="comprobar Empleado" style="ellipse;whiteSpace=wrap;html=1;" vertex="1" parent="1">
          <mxGeometry x="750" y="430" width="120" height="80" as="geometry" />
        </mxCell>
        <mxCell id="7zyX0bjfeX5HBIwXNsfr-14" value="localizar datos" style="ellipse;whiteSpace=wrap;html=1;" vertex="1" parent="1">
          <mxGeometry x="760" y="170" width="120" height="80" as="geometry" />
        </mxCell>
        <mxCell id="7zyX0bjfeX5HBIwXNsfr-15" value="&amp;lt;&amp;lt;include&amp;gt;&amp;gt;" style="html=1;verticalAlign=bottom;labelBackgroundColor=none;endArrow=open;endFill=0;dashed=1;rounded=0;exitX=1;exitY=0.5;exitDx=0;exitDy=0;entryX=0;entryY=0.5;entryDx=0;entryDy=0;" edge="1" parent="1" source="7zyX0bjfeX5HBIwXNsfr-4" target="7zyX0bjfeX5HBIwXNsfr-11">
          <mxGeometry width="160" relative="1" as="geometry">
            <mxPoint x="510" y="430" as="sourcePoint" />
            <mxPoint x="670" y="430" as="targetPoint" />
          </mxGeometry>
        </mxCell>
        <mxCell id="7zyX0bjfeX5HBIwXNsfr-17" value="&amp;lt;&amp;lt;include&amp;gt;&amp;gt;" style="html=1;verticalAlign=bottom;labelBackgroundColor=none;endArrow=open;endFill=0;dashed=1;rounded=0;exitX=1;exitY=0.5;exitDx=0;exitDy=0;entryX=0;entryY=0.5;entryDx=0;entryDy=0;" edge="1" parent="1" source="7zyX0bjfeX5HBIwXNsfr-6" target="7zyX0bjfeX5HBIwXNsfr-11">
          <mxGeometry width="160" relative="1" as="geometry">
            <mxPoint x="510" y="430" as="sourcePoint" />
            <mxPoint x="670" y="430" as="targetPoint" />
          </mxGeometry>
        </mxCell>
        <mxCell id="7zyX0bjfeX5HBIwXNsfr-21" value="&amp;lt;&amp;lt;extend&amp;gt;&amp;gt;" style="html=1;verticalAlign=bottom;labelBackgroundColor=none;endArrow=open;endFill=0;dashed=1;rounded=0;exitX=1;exitY=0.5;exitDx=0;exitDy=0;" edge="1" parent="1" source="7zyX0bjfeX5HBIwXNsfr-2" target="7zyX0bjfeX5HBIwXNsfr-14">
          <mxGeometry width="160" relative="1" as="geometry">
            <mxPoint x="510" y="430" as="sourcePoint" />
            <mxPoint x="670" y="430" as="targetPoint" />
          </mxGeometry>
        </mxCell>
      </root>
    </mxGraphModel>
  </diagram>
</mxfile>
